<mxfile host="Electron" modified="2024-07-27T10:23:55.132Z" agent="Mozilla/5.0 (Macintosh; Intel Mac OS X 10_15_7) AppleWebKit/537.36 (KHTML, like Gecko) draw.io/24.6.4 Chrome/124.0.6367.207 Electron/30.0.6 Safari/537.36" etag="EfOReH8lLcT6VSUfAc4o" version="24.6.4" type="device">
  <diagram name="페이지-1" id="E8sRQw-qIFp42jbAtIci">
    <mxGraphModel dx="1114" dy="894" grid="1" gridSize="10" guides="1" tooltips="1" connect="1" arrows="1" fold="1" page="1" pageScale="1" pageWidth="827" pageHeight="1169" math="0" shadow="0">
      <root>
        <mxCell id="0" />
        <mxCell id="1" parent="0" />
        <mxCell id="SSeAW3PUiEQArpNr5yUQ-1" value="&amp;nbsp;application.port.out" style="shape=folder;fontStyle=1;spacingTop=10;tabWidth=40;tabHeight=14;tabPosition=left;html=1;whiteSpace=wrap;verticalAlign=top;align=left;fillColor=#dae8fc;strokeColor=#6c8ebf;" parent="1" vertex="1">
          <mxGeometry x="262" y="65" width="198" height="265" as="geometry" />
        </mxCell>
        <mxCell id="SSeAW3PUiEQArpNr5yUQ-2" value="&lt;div&gt;&lt;i&gt;&amp;lt;&amp;lt;interface&amp;gt;&amp;gt;&lt;/i&gt;&lt;/div&gt;LoadAccount&lt;div&gt;Port&lt;/div&gt;" style="rounded=0;whiteSpace=wrap;html=1;" parent="1" vertex="1">
          <mxGeometry x="290" y="121" width="140" height="48" as="geometry" />
        </mxCell>
        <mxCell id="SSeAW3PUiEQArpNr5yUQ-3" value="&amp;nbsp;application.service" style="shape=folder;fontStyle=1;spacingTop=10;tabWidth=40;tabHeight=14;tabPosition=left;html=1;whiteSpace=wrap;verticalAlign=top;align=left;fillColor=#dae8fc;strokeColor=#6c8ebf;" parent="1" vertex="1">
          <mxGeometry x="60" y="65" width="160" height="170" as="geometry" />
        </mxCell>
        <mxCell id="SSeAW3PUiEQArpNr5yUQ-14" style="edgeStyle=orthogonalEdgeStyle;rounded=0;orthogonalLoop=1;jettySize=auto;html=1;endArrow=block;endFill=1;" parent="1" source="SSeAW3PUiEQArpNr5yUQ-5" target="SSeAW3PUiEQArpNr5yUQ-2" edge="1">
          <mxGeometry relative="1" as="geometry" />
        </mxCell>
        <mxCell id="SSeAW3PUiEQArpNr5yUQ-15" style="edgeStyle=orthogonalEdgeStyle;rounded=0;orthogonalLoop=1;jettySize=auto;html=1;entryX=0;entryY=0.5;entryDx=0;entryDy=0;endArrow=block;endFill=1;curved=1;" parent="1" source="SSeAW3PUiEQArpNr5yUQ-5" target="SSeAW3PUiEQArpNr5yUQ-8" edge="1">
          <mxGeometry relative="1" as="geometry">
            <Array as="points">
              <mxPoint x="242" y="150" />
              <mxPoint x="242" y="210" />
            </Array>
          </mxGeometry>
        </mxCell>
        <mxCell id="SSeAW3PUiEQArpNr5yUQ-5" value="SendMoney&lt;div&gt;Service&lt;/div&gt;" style="rounded=0;whiteSpace=wrap;html=1;" parent="1" vertex="1">
          <mxGeometry x="86.25" y="124.5" width="107.5" height="40" as="geometry" />
        </mxCell>
        <mxCell id="SSeAW3PUiEQArpNr5yUQ-16" style="edgeStyle=orthogonalEdgeStyle;rounded=0;orthogonalLoop=1;jettySize=auto;html=1;entryX=0;entryY=0.5;entryDx=0;entryDy=0;endArrow=block;endFill=1;curved=1;" parent="1" source="SSeAW3PUiEQArpNr5yUQ-7" target="SSeAW3PUiEQArpNr5yUQ-13" edge="1">
          <mxGeometry relative="1" as="geometry" />
        </mxCell>
        <mxCell id="SSeAW3PUiEQArpNr5yUQ-7" value="RegisterAccount&lt;div&gt;Service&lt;/div&gt;" style="rounded=0;whiteSpace=wrap;html=1;" parent="1" vertex="1">
          <mxGeometry x="86.25" y="177.5" width="107.5" height="40" as="geometry" />
        </mxCell>
        <mxCell id="SSeAW3PUiEQArpNr5yUQ-8" value="&lt;div&gt;&lt;i&gt;&amp;lt;&amp;lt;interface&amp;gt;&amp;gt;&lt;/i&gt;&lt;/div&gt;UpdateAccountState&lt;div&gt;Port&lt;/div&gt;" style="rounded=0;whiteSpace=wrap;html=1;" parent="1" vertex="1">
          <mxGeometry x="291" y="185" width="141" height="50" as="geometry" />
        </mxCell>
        <mxCell id="SSeAW3PUiEQArpNr5yUQ-9" value="&amp;nbsp;adapter.out.persistence" style="shape=folder;fontStyle=1;spacingTop=10;tabWidth=40;tabHeight=14;tabPosition=left;html=1;whiteSpace=wrap;verticalAlign=top;align=left;fillColor=#d5e8d4;strokeColor=#82b366;" parent="1" vertex="1">
          <mxGeometry x="500" y="65" width="160" height="195" as="geometry" />
        </mxCell>
        <mxCell id="SSeAW3PUiEQArpNr5yUQ-18" style="edgeStyle=orthogonalEdgeStyle;rounded=0;orthogonalLoop=1;jettySize=auto;html=1;entryX=1;entryY=0.5;entryDx=0;entryDy=0;exitX=0;exitY=0.25;exitDx=0;exitDy=0;endArrow=block;endFill=0;curved=1;" parent="1" source="SSeAW3PUiEQArpNr5yUQ-12" target="SSeAW3PUiEQArpNr5yUQ-2" edge="1">
          <mxGeometry relative="1" as="geometry" />
        </mxCell>
        <mxCell id="SSeAW3PUiEQArpNr5yUQ-19" style="edgeStyle=orthogonalEdgeStyle;rounded=0;orthogonalLoop=1;jettySize=auto;html=1;entryX=1;entryY=0.5;entryDx=0;entryDy=0;endArrow=block;endFill=0;curved=1;" parent="1" source="SSeAW3PUiEQArpNr5yUQ-12" target="SSeAW3PUiEQArpNr5yUQ-8" edge="1">
          <mxGeometry relative="1" as="geometry" />
        </mxCell>
        <mxCell id="SSeAW3PUiEQArpNr5yUQ-20" style="edgeStyle=orthogonalEdgeStyle;rounded=0;orthogonalLoop=1;jettySize=auto;html=1;entryX=1;entryY=0.5;entryDx=0;entryDy=0;endArrow=block;endFill=0;curved=1;" parent="1" edge="1">
          <mxGeometry relative="1" as="geometry">
            <mxPoint x="529" y="157" as="sourcePoint" />
            <mxPoint x="432" y="272" as="targetPoint" />
            <Array as="points">
              <mxPoint x="481" y="157" />
              <mxPoint x="481" y="272" />
            </Array>
          </mxGeometry>
        </mxCell>
        <mxCell id="SSeAW3PUiEQArpNr5yUQ-12" value="Persistence&lt;div&gt;Adapter&lt;/div&gt;" style="rounded=0;whiteSpace=wrap;html=1;" parent="1" vertex="1">
          <mxGeometry x="529" y="122" width="105" height="45" as="geometry" />
        </mxCell>
        <mxCell id="SSeAW3PUiEQArpNr5yUQ-13" value="&lt;div&gt;&lt;i&gt;&amp;lt;&amp;lt;interface&amp;gt;&amp;gt;&lt;/i&gt;&lt;/div&gt;CreateAccount&lt;div&gt;Port&lt;/div&gt;" style="rounded=0;whiteSpace=wrap;html=1;" parent="1" vertex="1">
          <mxGeometry x="291" y="250" width="141" height="50" as="geometry" />
        </mxCell>
      </root>
    </mxGraphModel>
  </diagram>
</mxfile>
